<svg xmlns="http://www.w3.org/2000/svg" width="128" height="128" viewBox="0 0 128 128">
  <circle cx="64" cy="64" r="60" fill="#FFDD67"/>
  <path d="M64,8c-30.9,0-56,25.1-56,56s25.1,56,56,56s56-25.1,56-56S94.9,8,64,8z M64,112c-26.5,0-48-21.5-48-48 s21.5-48,48-48s48,21.5,48,48S90.5,112,64,112z" fill="#EBA352"/>
  <path d="M92,88.8c-4.8-4.3-11.1-6.8-18-6.8c-7.8,0-14.7,2.9-19.5,8.1c-0.9,1-2.5,0.2-2.4-1.1 c1.1-7.2,12.3-17,21.9-17c9.1,0,19.9,9.5,21,16.6C95.1,89.8,93.2,90.2,92,88.8z" fill="#664E27"/>
  <ellipse cx="37.5" cy="50.5" rx="8.5" ry="11.5" fill="#664E27"/>
  <ellipse cx="90.5" cy="50.5" rx="8.5" ry="11.5" fill="#664E27"/>
</svg> 